{"title":"Eyjafjallajokull.2013.French.720p.BRRip.x264-Fastbet99","uid":9663188,"size":1194612183,"categoryP":"video","categoryS":"hd___movies","magnet":"?xt=urn:btih:51804fa7b728ad2e94b8f0b4d9ceccefea062ada&amp;dn=Eyjafjallajokull.2013.French.720p.BRRip.x264-Fastbet99&amp;tr=udp%3A%2F%2Ftracker.openbittorrent.com%3A80&amp;tr=udp%3A%2F%2Fopen.demonii.com%3A1337&amp;tr=udp%3A%2F%2Ftracker.coppersurfer.tk%3A6969&amp;tr=udp%3A%2F%2Fexodus.desync.com%3A6969","seeders":2,"leechers":1,"uploader":"Fastbet99","files":-1,"time":1393286981,"description":"Eyjafjallajokull (2013)\n\nIMDB Info\t\t\t\t : http://www.imdb.com/title/tt2207072\n\nSource\t\t\t\t\t : Monday27th (Thanks)\nComplete name                            : Eyjafjallajokull.2013.French.720p.BRRip.x264-Fastbet99.mp4\nFormat                                   : MPEG-4\nFormat profile                           : Base Media\nCodec ID                                 : isom\nFile size                                : 1.11 GiB\nDuration                                 : 1h 32mn\nOverall bit rate mode                    : Variable\nOverall bit rate                         : 1 729 Kbps\n\nVideo\nID                                       : 1\nFormat                                   : AVC\nFormat/Info                              : Advanced Video Codec\nFormat profile                           : &lt;a class=&quot;__cf_email__&quot; href=&quot;/cdn-cgi/l/email-protection&quot; data-cfemail=&quot;763e1f111e363a425847&quot;&gt;[email&amp;#160;protected]&lt;/a&gt;&lt;script cf-hash='f9e31' type=&quot;text/javascript&quot;&gt;\n/* &lt;![CDATA[ */!function(){try{var t=&quot;currentScript&quot;in document?document.currentScript:function(){for(var t=document.getElementsByTagName(&quot;script&quot;),e=t.length;e--;)if(t[e].getAttribute(&quot;cf-hash&quot;))return t[e]}();if(t&amp;&amp;t.previousSibling){var e,r,n,i,c=t.previousSibling,a=c.getAttribute(&quot;data-cfemail&quot;);if(a){for(e=&quot;&quot;,r=parseInt(a.substr(0,2),16),n=2;a.length-n;n+=2)i=parseInt(a.substr(n,2),16)^r,e+=String.fromCharCode(i);e=document.createTextNode(e),c.parentNode.replaceChild(e,c)}}}catch(u){}}();/* ]]&gt; */&lt;/script&gt;\nFormat settings, CABAC                   : Yes\nFormat settings, ReFrames                : 4 frames\nCodec ID                                 : avc1\nCodec ID/Info                            : Advanced Video Coding\nDuration                                 : 1h 32mn\nBit rate                                 : 1 630 Kbps\nMaximum bit rate                         : 9 326 Kbps\nWidth                                    : 1 280 pixels\nHeight                                   : 536 pixels\nDisplay aspect ratio                     : 2.40:1\nFrame rate mode                          : Constant\nFrame rate                               : 23.976 fps\nColor space                              : YUV\nChroma subsampling                       : 4:2:0\nBit depth                                : 8 bits\nScan type                                : Progressive\nBits/(Pixel*Frame)                       : 0.099\nStream size                              : 1.05 GiB (94%)\nWriting library                          : x264 core 138 r2358 9e941d1\n\nAudio\nID                                       : 2\nFormat                                   : AAC\nFormat/Info                              : Advanced Audio Codec\nFormat profile                           : LC\nCodec ID                                 : 40\nDuration                                 : 1h 32mn\nBit rate mode                            : Variable\nBit rate                                 : 96.0 Kbps\nMaximum bit rate                         : 156 Kbps\nChannel count                            : 2 channels\nChannel positions                        : Front: L R\nSampling rate                            : 48.0 KHz\nCompression mode                         : Lossy\nStream size                              : 63.3 MiB (6%)\nLanguage                                 : French\n\nText\nID                                       : 3\nFormat                                   : Timed Text\nCodec ID                                 : tx3g\nDuration                                 : 1h 14mn\nBit rate mode                            : Variable\nBit rate                                 : 5 bps\nStream size                              : 2.57 KiB (0%)\nLanguage                                 : French\nEncoder\t\t\t\t\t : Fastbet99\n\nScreenshots\n &lt;a href=&quot;\nhttp://lookpic.com/O/i2/320/wbMAeoRc.jpeg&quot; rel=&quot;nofollow&quot; target=&quot;_NEW&quot;&gt;\nhttp://lookpic.com/O/i2/320/wbMAeoRc.jpeg&lt;/a&gt;\n\nStairway To heaven - Help People With Keep Seed As Long You Can","torrent":{"xt":"urn:btih:51804fa7b728ad2e94b8f0b4d9ceccefea062ada","amp;dn":"Eyjafjallajokull.2013.French.720p.BRRip.x264-Fastbet99","amp;tr":["udp%3A%2F%2Ftracker.openbittorrent.com%3A80","udp%3A%2F%2Fopen.demonii.com%3A1337","udp%3A%2F%2Ftracker.coppersurfer.tk%3A6969","udp%3A%2F%2Fexodus.desync.com%3A6969"],"infoHash":"51804fa7b728ad2e94b8f0b4d9ceccefea062ada","infoHashBuffer":{"type":"Buffer","data":[81,128,79,167,183,40,173,46,148,184,240,180,217,206,204,239,234,6,42,218]},"announce":[],"urlList":[]}}